PathFileType	4	(X/Y/Z)	RBDS022\RBDS022runT45.trc
DataRate	CameraRate	NumFrames	NumMarkers	Units	OrigDataRate	OrigDataStartFrame	OrigNumFrames
150.000000	150.000000	6	32	mm	150.000000	3375	4500
Frame#	Time	L.ASIS			L.Heel.Bottom			L.Heel.Lateral			L.Heel.Top			L.Iliac.Crest			L.MT1			L.MT5			L.PSIS			L.Shank.Bottom.Lateral			L.Shank.Bottom.Medial			L.Shank.Top.Lateral			L.Shank.Top.Medial			L.Thigh.Bottom.Lateral			L.Thigh.Bottom.Medial			L.Thigh.Top.Lateral			L.Thigh.Top.Medial			R.ASIS			R.Heel.Bottom			R.Heel.Lateral			R.Heel.Top			R.Iliac.Crest			R.MT1			R.MT5			R.PSIS			R.Shank.Bottom.Lateral			R.Shank.Bottom.Medial			R.Shank.Top.Lateral			R.Shank.Top.Medial			R.Thigh.Bottom.Lateral			R.Thigh.Bottom.Medial			R.Thigh.Top.Lateral			R.Thigh.Top.Medial			
		X1	Y1	Z1	X2	Y2	Z2	X3	Y3	Z3	X4	Y4	Z4	X5	Y5	Z5	X6	Y6	Z6	X7	Y7	Z7	X8	Y8	Z8	X9	Y9	Z9	X10	Y10	Z10	X11	Y11	Z11	X12	Y12	Z12	X13	Y13	Z13	X14	Y14	Z14	X15	Y15	Z15	X16	Y16	Z16	X17	Y17	Z17	X18	Y18	Z18	X19	Y19	Z19	X20	Y20	Z20	X21	Y21	Z21	X22	Y22	Z22	X23	Y23	Z23	X24	Y24	Z24	X25	Y25	Z25	X26	Y26	Z26	X27	Y27	Z27	X28	Y28	Z28	X29	Y29	Z29	X30	Y30	Z30	X31	Y31	Z31	X32	Y32	Z32	

3376	22.5	2135.162589065233	980.9215018789961	885.8398564739281	2217.612029199589	45.76794782863694	948.570292378061	2244.216861715976	70.72877146050503	901.5746920491302	2217.444609442621	91.63819110930923	946.5445085340456	2053.915468580152	1070.953796015671	834.6620058747289	2426.845968899913	101.2286663506987	982.0532148323575	2398.200510520998	77.76809105753476	872.8424131233777	1974.942139842819	1020.691397859189	951.8518340243738	2256.590927770903	208.0536369312985	879.137499464568	2216.350758463917	207.9764471329865	917.2337201543789	2240.020537609985	284.8065987686695	862.3182753536448	2200.898771776148	285.3859363943205	899.1291927887098	2206.092324209348	636.6248279554674	839.6576933933171	2148.658381289287	609.2809781231301	874.7388907401241	2150.747177759275	728.7962964718345	819.7194628205855	2095.573213350942	703.0687509004364	852.8065212273631	2142.482871534784	965.3605262276966	1114.464141980058	1471.285472471373	324.4062645637226	1007.146561251868	1489.655039054199	307.4478210746201	1058.986629406537	1514.803098756958	329.4053167390352	1014.010041385274	2119.505245095702	1045.679478699745	1147.126629463052	1542.18529550801	120.6587589847115	1008.509809274619	1510.845387202691	153.6500639910998	1111.728107202475	1985.55335658489	1024.130547183967	1040.3278991284	1586.649346203075	335.7146958995809	1091.089526935791	1574.150666514425	364.4559667483824	1050.473363534387	1646.905121840705	392.4774397662126	1110.184331387406	1626.665338152916	422.3905847994491	1070.923715398711	1922.623263845158	633.727073025486	1144.637706739605	1871.698709692029	666.1178950393198	1106.874908474429	1966.953468825572	732.0601209620868	1168.836834687264	1916.514503136874	762.4691130283236	1133.97508127112	
3377	22.50666666666667	2135.145668895535	980.6038796878412	885.9436653333378	2240.135154909689	38.08087004714478	949.9494532636909	2265.80459896799	64.2121398167219	902.9940701577142	2236.528363029423	83.97504080602835	947.0926027781602	2054.366548743109	1070.681649896678	834.7587117938758	2444.964962667071	109.9477605482755	986.2436491031959	2419.945408394467	81.89502532383337	876.8387370331236	1975.596157467805	1021.284766318484	951.3876681274081	2268.923004646465	204.3601664306359	880.0345061442752	2228.382155076639	202.3028266897866	917.8809867493187	2248.300191511148	280.1155028859007	862.8468072215949	2208.916767955034	278.7436194324896	899.4296659067749	2202.018733287169	632.8997435244983	838.7458921318145	2144.520105319857	607.0503597029459	874.898348939949	2148.172193087005	725.9663142925031	818.5877234982232	2093.040304510615	701.6626393849712	852.7612218732119	2143.086392565308	966.2224680131569	1114.353448854471	1464.874906821741	343.553995679898	1009.148681706708	1483.135038712131	326.211974435323	1060.932777303528	1508.692416446196	346.5925070797976	1015.257166620202	2118.801151771625	1048.044331438892	1146.587836321529	1527.05697415815	136.4189675738578	1011.375946261596	1498.569866736806	171.8033422590504	1114.561439089425	1986.244565001947	1025.284223731503	1039.933045189705	1581.856731559664	348.5721620580308	1092.603991559763	1570.158745241999	378.4339933199921	1052.61878148747	1644.928332185724	402.0539644547422	1111.379607727414	1625.675274468834	433.3639718732844	1072.836544110849	1927.256069890851	631.8641390636702	1143.849089131663	1875.549717997445	664.045833460861	1107.151739641285	1971.169920145252	730.3081762421149	1168.119439806444	1919.635850325995	760.5610700958568	1135.000253429638	
3378	22.51333333333334	2134.979383461847	979.8051285208802	885.8452835530209	2258.713989735465	32.00377772265059	951.7813217454155	2283.534099931645	58.99098972244271	904.8083915694518	2252.2340250257	77.77196067302808	948.1330850552517	2054.716684263468	1069.609750626621	834.7019422723426	2459.179937169165	117.5846283733189	990.0594409725381	2437.311909424306	85.52969724427469	880.6396570427612	1975.900304905333	1021.202863265876	951.0574723704352	2278.568345194572	201.0952564612097	881.2105930879665	2237.91793016484	197.3398237573724	918.971750942823	2254.435562768461	275.8767949448995	863.7335971064342	2214.987289033869	272.8316982189226	900.2545675929888	2198.062862803186	629.2990460097121	837.9649958244474	2140.487924516766	604.8259033438629	875.0366247407286	2145.565684195795	723.1226397481907	817.4964743366121	2090.515713240062	700.1344114363405	852.6775882689138	2143.724381433378	966.661206345715	1114.228326153681	1459.882071580115	363.0358688172751	1010.910847344608	1478.169719486566	345.3747766562781	1062.640133244637	1503.82953194535	364.2164889523319	1016.216913138761	2117.253359056189	1049.936515808132	1146.157861431539	1513.560896682321	153.4629730235723	1013.880154438419	1488.316992510678	190.9288811289039	1117.216684688764	1986.786655297141	1025.63536287711	1039.621470138937	1578.611639557933	361.778998087944	1093.781746858174	1567.886879055448	392.8878149915351	1054.510585721102	1644.596306210086	411.5186239426653	1112.314501469721	1626.551169081984	444.3575325516828	1074.560056532805	1933.265248266126	628.4889684751903	1143.235880668581	1880.49616093769	660.1696314571649	1107.760920974312	1976.289582675758	727.278222297088	1167.44001687535	1923.361294500033	757.0760357447107	1136.29142630466	
3379	22.52	2134.672140163798	978.6261459477946	885.5456257944085	2272.854183347003	27.35572519780742	954.1348558611486	2296.943857682035	54.87616779432501	907.08284302959	2264.197184910106	72.91238478622367	949.7933075554063	2054.960634127294	1067.876019727564	834.4971830682247	2469.506460028403	123.4478961218957	993.4062283880581	2450.035826325126	88.11061612728911	884.1539975878039	1975.867358763598	1020.424519072702	950.9315413945418	2285.38191333669	198.0433184928978	882.7182313093263	2244.819293449048	192.9378202619865	920.5838292621993	2258.35235079612	271.9528623848233	865.0165668240051	2219.026940977612	267.5808873801804	901.659344303192	2194.290397896365	625.9228364229961	837.4100947187594	2136.607151355907	602.650860574282	875.1813018387854	2142.95723435132	720.3559362799371	816.5588041014132	2088.002622921352	698.5289591646253	852.6097301939151	2144.460226622627	966.6165852163198	1114.057893712576	1456.746609089356	382.7788620563595	1012.410506465768	1475.111634476624	364.7976347081656	1064.099694401502	1500.667171034548	382.1374529420361	1016.943346187747	2115.044045147076	1051.198652342618	1145.848067854038	1501.85488338845	171.5355721496518	1016.009651838089	1480.129297400143	210.770564818712	1119.631857398519	1987.217637971555	1025.101229653905	1039.454639883958	1577.100116767127	375.1743035866628	1094.662673228592	1567.513768516446	407.5715385565997	1056.139913123441	1645.975700778729	420.8078913580212	1113.001597385702	1629.341239898229	455.2163414662577	1076.056383973695	1940.398450844831	623.7976488820274	1142.838038587015	1886.387086951521	654.7057547520178	1108.613173189483	1982.096193838582	723.1413163126077	1166.848154936363	1927.603407482925	752.2012924498762	1137.705193364111	
3380	22.52666666666667	2134.223331964476	977.1550826582403	885.0515384868668	2282.17936232202	23.95096934024368	957.0304376585486	2305.691096150927	51.68626625092383	909.8442411634171	2272.142946859847	69.26710550371092	952.1541267765757	2055.05301597576	1065.615979529988	834.1816138847078	2475.999925296741	126.9636837689946	996.2298039808668	2457.957806224554	89.18400573997658	887.3081412062606	1975.525357650977	1018.940548690201	951.0769370681497	2289.292769106967	195.0104595933711	884.5860370848872	2249.00183546371	188.9605587506101	922.7457672507597	2260.045008172568	268.21320826183	866.6997106789987	2221.00286000134	262.9197868822441	903.6400413462432	2190.753174829152	622.8165473797184	837.1431766814436	2132.922082069749	600.5271927336995	875.3610392978472	2140.368619603812	717.7079455376982	815.8638793863627	2085.50189848691	696.852229699373	852.6073523268996	2145.333161285504	966.0405396811932	1113.813337355718	1455.876383172582	402.6228598948167	1013.626384023133	1474.274660282801	384.2768771405696	1065.302444124132	1499.625594860776	400.134909309134	1017.485633105803	2112.40854982381	1051.676275342926	1145.671116730576	1492.100289578136	190.313125083239	1017.786911155034	1474.030401568728	231.0344579825097	1121.769116541353	1987.568844333733	1023.629487009191	1039.492728218218	1577.484094721237	388.55294869851	1095.30017208076	1569.185334319161	422.1915351246871	1057.50981494399	1649.11592467505	429.827362265623	1113.47004540716	1634.065990263928	465.7529510034422	1077.302552897494	1948.389839363572	618.0269478712437	1142.671862436461	1893.069863186942	647.9189346456714	1109.589760010647	1988.366650393572	718.0994754976398	1166.381741389255	1932.27638991459	746.1642746999732	1139.081501093835	
3381	22.53333333333333	2133.622475609852	975.4590635021017	884.3719909239521	2286.453258524556	21.6105085900104	960.4317765831188	2309.57051735222	49.26325851177769	913.0732818730463	2275.895649300988	66.70106544778785	955.235922196816	2054.913166980658	1062.947646695483	833.8190809625025	2478.733726148318	127.7365172254886	998.5203640887471	2461.026131215099	88.45793703497895	890.0507554525188	1974.913323863581	1016.757359752922	951.5499439167197	2290.301450315718	191.8473966567878	886.814678977552	2250.431463417205	185.3028230657915	925.4300874461987	2259.570885417827	264.5539874944526	868.7516980692188	2220.928612846112	258.789101125257	906.131522704208	2187.489833410918	619.973768666065	837.1863004325595	2129.478040064346	598.4229267683588	875.6020805514933	2137.815889237791	715.1725276456864	815.4642899733466	2083.017887861124	695.0765709408358	852.7089399467965	2146.354066977897	964.900266805416	1113.46886515653	1457.587654693812	422.3221890395328	1014.545876265395	1475.891748855021	403.5485963827532	1066.243634664799	1501.034806653083	417.9205761199473	1017.884492637634	2109.619225821553	1051.232022478147	1145.63767465502	1484.455702763076	209.4175211162321	1019.264897490452	1470.036212550558	251.3934392025043	1123.620029399058	1987.861320916873	1021.205617390808	1039.788124600261	1579.879758209619	401.6804333414312	1095.754389005605	1572.995747810781	436.4301481552537	1058.632393662164	1654.037270430227	438.4564431512885	1113.763067415379	1640.710288447155	475.761349552261	1078.292286863082	1956.984840284304	611.4293464973406	1142.734465055239	1900.400752915152	640.0938887483087	1110.563450941444	1994.891757460956	712.3649698682669	1166.065648842615	1937.299572560311	739.2084678472743	1140.267235580463	
